<svg id="Logos" xmlns="http://www.w3.org/2000/svg" width="3.55929in" height="0.74918in" viewBox="0 0 256.2686 53.9408">
  <g>
    <g>
      <path d="M86.0928,24.775l-1.7122,5.3029a2.31727,2.31727,0,0,1-2.3759,1.8785H75.3758L73.0555,44.9936a2.16407,2.16407,0,0,1-2.3754,1.8785H64.2717L71.0668,8.2017H90.0151l-.8837,5.3034a2.16407,2.16407,0,0,1-2.3754,1.8784H78.2482L76.5911,24.775Z" transform="translate(-1.2943 -0.2725)" style="fill: #002856"/>
      <path d="M111.7806,8.2017l3.9774,4.1432-5.3585,30.384-5.4692,4.1432H91.5614L87.584,42.7289l5.3585-30.384,5.4692-4.1432ZM100.6769,16.433,96.7546,38.6959c-.1107.6076.1102.9944.7729.9944h3.9223a1.12516,1.12516,0,0,0,1.2158-1.0495l3.9223-22.2629c.1102-.6076-.1107-.9944-.7735-.9944h-3.9222A1.12441,1.12441,0,0,0,100.6769,16.433Z" transform="translate(-1.2943 -0.2725)" style="fill: #002856"/>
      <path d="M139.7877,8.2017l3.9774,4.1432-5.3585,30.384-5.4692,4.1432H119.5686l-3.9774-4.1432,5.3585-30.384,5.4691-4.1432ZM128.684,16.433l-3.9223,22.2629c-.1107.6076.1102.9944.773.9944h3.9223a1.12512,1.12512,0,0,0,1.2157-1.0495l3.9223-22.2629c.1102-.6076-.1107-.9944-.7734-.9944h-3.9223A1.12447,1.12447,0,0,0,128.684,16.433Z" transform="translate(-1.2943 -0.2725)" style="fill: #002856"/>
      <path d="M156.1942,44.9936a2.16378,2.16378,0,0,1-2.3754,1.8785h-6.4079l5.5794-31.4886H146.14l1.2153-7.1818H169.508l-.8837,5.3034a2.16407,2.16407,0,0,1-2.3754,1.8784h-4.8064Z" transform="translate(-1.2943 -0.2725)" style="fill: #002856"/>
      <path d="M191.4939,30.7411l-2.0994,11.9878-5.4691,4.1432H165.8608l6.7951-38.6704h17.8437l3.9774,4.1432-1.9887,11.2699-4.53,3.4249Zm-11.049,8.9492a1.12512,1.12512,0,0,0,1.2157-1.0495l1.2153-6.9605c.1102-.6632-.1107-.9943-.7734-.9943h-4.9167l-1.602,9.0043ZM184.257,22.344l1.0494-5.9661c.1107-.6076-.1102-.9944-.7734-.9944h-4.6958l-1.4361,8.1206h4.585C183.7044,23.5041,184.0912,23.2281,184.257,22.344Z" transform="translate(-1.2943 -0.2725)" style="fill: #002856"/>
      <path d="M216.3527,10.3562l-.8842,36.5159h-8.6731l.4418-6.9053h-5.4135l-1.4367,5.0824a2.17711,2.17711,0,0,1-2.3198,1.8229h-6.8503L203.7017,8.2017h10.4414A1.99175,1.99175,0,0,1,216.3527,10.3562Zm-8.6732,22.8154,1.1602-18.2855-5.138,18.2855Z" transform="translate(-1.2943 -0.2725)" style="fill: #002856"/>
      <path d="M218.6169,46.8721l6.7952-38.6704h8.4522L228.34,39.6903h8.6731l-.8841,5.3033a2.16384,2.16384,0,0,1-2.3754,1.8785Z" transform="translate(-1.2943 -0.2725)" style="fill: #002856"/>
      <path d="M239.1667,46.8721l6.7951-38.6704h8.4522l-5.5243,31.4886h8.6732l-.8842,5.3033a2.16378,2.16378,0,0,1-2.3754,1.8785Z" transform="translate(-1.2943 -0.2725)" style="fill: #002856"/>
    </g>
    <g>
      <path d="M52.0295,27.061h-6.996l-.8257,2.9175h1.0848L41.839,35.4562l-.4844-8.3952H34.2572l-.8063,2.9042,1.0825.0133-4.6346,7.0317-3.8163-.015A2.10139,2.10139,0,0,1,24.141,34.715c0-1.9114,1.8182-4.6845,3.6674-4.6845l.7741.0177c-.1301.471-.4026,1.4491-.4026,1.4491H31.578l1.2212-4.4363-5.2353-.0192a7.32392,7.32392,0,0,0-6.7201,4.7452l1.3565-4.7106-4.6552-.0154-.8219,2.9175,1.205-.0051-1.213,4.2727-3.0459-7.1697H9.3063L8.4873,29.98H9.6836L6.9804,39.8273h3.4883s1.3423-4.8803,1.6881-6.137c.4913,1.1876,2.539,6.137,2.539,6.137l3.8823-.0012,1.7765-6.2536a8.64356,8.64356,0,0,0-.0022,2.869,4.382,4.382,0,0,0,4.5123,3.3855l7.0462.0003,1.2101-1.8315h4.9704l.1008,1.812H42.599l1.1219-1.812h5.0836l.1992,1.8315h3.1196l.6885-1.3968Z" transform="translate(-1.2943 -0.2725)" style="fill: #fff"/>
      <path d="M52.7948,42.1165a1.68759,1.68759,0,1,1,1.6925,1.7359A1.68038,1.68038,0,0,1,52.7948,42.1165Zm1.6925,2.0824a2.07726,2.07726,0,1,0-2.1103-2.0824A2.07434,2.07434,0,0,0,54.4873,44.1989Zm-.44-1.9174h.4178l.6315,1.0382h.4069l-.6816-1.055a.62273.62273,0,0,0,.6211-.6592c0-.4722-.2798-.6808-.8462-.6808h-.912v2.395h.3625Zm0-.3074v-.7425h.4944c.253,0,.5222.055.5222.3517,0,.3682-.2746.3908-.5824.3908Z" transform="translate(-1.2943 -0.2725)" style="fill: #005cb9"/>
      <g>
        <path d="M35.1242,34.9488l2.7016-4.1005.1437,4.1005Zm10.815-.0553,2.6978-4.086.136,4.086Z" transform="translate(-1.2943 -0.2725)" style="fill: #005cb9"/>
        <path d="M49.0037,39.8273l-.1992-1.8315H43.7209l-1.1219,1.812H38.1922l-.1008-1.812H33.121l-1.2101,1.8315-7.0462-.0003a4.382,4.382,0,0,1-4.5123-3.3855,8.64356,8.64356,0,0,1,.0022-2.869l-1.7765,6.2536-3.8823.0012s-2.0477-4.9494-2.539-6.137c-.3458,1.2567-1.6881,6.137-1.6881,6.137H6.9804L9.6836,29.98H8.4873l.819-2.9036h4.363l3.0459,7.1697,1.213-4.2727-1.205.0051.8219-2.9175,4.6552.0154L20.8438,31.787a7.32392,7.32392,0,0,1,6.7201-4.7452l5.2353.0192L31.578,31.4973H28.1799s.2725-.9781.4026-1.4491l-.7741-.0177c-1.8492,0-3.6674,2.7731-3.6674,4.6845a2.10139,2.10139,0,0,0,1.9415,2.2802l3.8163.015,4.6346-7.0317-1.0825-.0133.8063-2.9042h7.0974l.4844,8.3952,3.4536-5.4777H44.2078l.8257-2.9175h6.996l.7823,11.3695a27.03,27.03,0,1,0-.6885,1.3968Z" transform="translate(-1.2943 -0.2725)" style="fill: #005cb9"/>
      </g>
    </g>
  </g>
</svg>
