<svg width="118" height="118" viewBox="0 0 118 118" fill="none" xmlns="http://www.w3.org/2000/svg">
<path d="M31.6444 39.3333C30.2615 43.4741 29.5 48.0004 29.5 52.7425C29.5 72.4908 42.7076 88.4999 59 88.4999C75.2924 88.4999 88.5 72.4908 88.5 52.7425C88.5 48.0004 87.7384 43.4741 86.3558 39.3333" stroke="white" stroke-width="8.5" stroke-linecap="round" stroke-linejoin="round"/>
<path d="M71.2917 103.25C71.2917 103.25 67.9385 88.5 59 88.5C50.0615 88.5 46.7083 103.25 46.7083 103.25" stroke="white" stroke-width="8.5" stroke-linecap="round" stroke-linejoin="round"/>
<path d="M91.0572 25.7125C92.4924 33.907 86.0432 39.3333 86.0432 39.3333C86.0432 39.3333 78.1593 36.5653 76.7241 28.3708C75.289 20.1763 81.7382 14.75 81.7382 14.75C81.7382 14.75 89.622 17.5181 91.0572 25.7125Z" stroke="white" stroke-width="8.5" stroke-linecap="round" stroke-linejoin="round"/>
<path d="M103.713 59.6849C97.413 65.9133 88.8826 63.4265 88.8826 63.4265C88.8826 63.4265 86.6519 54.7107 92.9521 48.482C99.2518 42.2532 107.783 44.7403 107.783 44.7403C107.783 44.7403 110.013 53.456 103.713 59.6849Z" stroke="white" stroke-width="8.5" stroke-linecap="round" stroke-linejoin="round"/>
<path d="M89.648 89.4322C82.273 86.6021 81.125 78.6666 81.125 78.6666C81.125 78.6666 87.352 73.5612 94.727 76.3912C102.102 79.2212 103.25 87.1567 103.25 87.1567C103.25 87.1567 97.023 92.2622 89.648 89.4322Z" stroke="white" stroke-width="8.5" stroke-linecap="round" stroke-linejoin="round"/>
<path d="M28.352 89.4317C35.727 86.6017 36.875 78.6662 36.875 78.6662C36.875 78.6662 30.648 73.5607 23.273 76.3907C15.898 79.2208 14.75 87.1563 14.75 87.1563C14.75 87.1563 20.977 92.2617 28.352 89.4317Z" stroke="white" stroke-width="8.5" stroke-linecap="round" stroke-linejoin="round"/>
<path d="M14.2861 59.6849C20.5861 65.9133 29.1167 63.4265 29.1167 63.4265C29.1167 63.4265 31.3473 54.7107 25.0472 48.482C18.7473 42.2532 10.2167 44.7403 10.2167 44.7403C10.2167 44.7403 7.9861 53.456 14.2861 59.6849Z" stroke="white" stroke-width="8.5" stroke-linecap="round" stroke-linejoin="round"/>
<path d="M26.9427 25.7125C25.5076 33.907 31.9568 39.3333 31.9568 39.3333C31.9568 39.3333 39.841 36.5653 41.2761 28.3708C42.7111 20.1763 36.262 14.75 36.262 14.75C36.262 14.75 28.3778 17.5181 26.9427 25.7125Z" stroke="white" stroke-width="8.5" stroke-linecap="round" stroke-linejoin="round"/>
<path d="M64.5966 41.9091V71H57.5795V48.4716H57.4091L50.9034 52.4489V46.3693L58.0767 41.9091H64.5966Z" fill="white"/>
</svg>
