<svg width="118" height="118" viewBox="0 0 118 118" fill="none" xmlns="http://www.w3.org/2000/svg">
<path d="M31.6444 39.3333C30.2615 43.4741 29.5 48.0004 29.5 52.7425C29.5 72.4908 42.7076 88.4999 59 88.4999C75.2924 88.4999 88.5 72.4908 88.5 52.7425C88.5 48.0004 87.7384 43.4741 86.3558 39.3333" stroke="white" stroke-width="8.5" stroke-linecap="round" stroke-linejoin="round"/>
<path d="M71.2917 103.25C71.2917 103.25 67.9385 88.5 59 88.5C50.0615 88.5 46.7083 103.25 46.7083 103.25" stroke="white" stroke-width="8.5" stroke-linecap="round" stroke-linejoin="round"/>
<path d="M91.0572 25.7125C92.4924 33.907 86.0432 39.3333 86.0432 39.3333C86.0432 39.3333 78.1593 36.5653 76.7241 28.3708C75.289 20.1763 81.7382 14.75 81.7382 14.75C81.7382 14.75 89.622 17.5181 91.0572 25.7125Z" stroke="white" stroke-width="8.5" stroke-linecap="round" stroke-linejoin="round"/>
<path d="M103.713 59.6849C97.413 65.9133 88.8826 63.4265 88.8826 63.4265C88.8826 63.4265 86.6519 54.7107 92.9521 48.482C99.2518 42.2532 107.783 44.7403 107.783 44.7403C107.783 44.7403 110.013 53.456 103.713 59.6849Z" stroke="white" stroke-width="8.5" stroke-linecap="round" stroke-linejoin="round"/>
<path d="M89.648 89.4322C82.273 86.6021 81.125 78.6666 81.125 78.6666C81.125 78.6666 87.352 73.5612 94.727 76.3912C102.102 79.2212 103.25 87.1567 103.25 87.1567C103.25 87.1567 97.023 92.2622 89.648 89.4322Z" stroke="white" stroke-width="8.5" stroke-linecap="round" stroke-linejoin="round"/>
<path d="M28.352 89.4317C35.727 86.6017 36.875 78.6662 36.875 78.6662C36.875 78.6662 30.648 73.5607 23.273 76.3907C15.898 79.2208 14.75 87.1563 14.75 87.1563C14.75 87.1563 20.977 92.2617 28.352 89.4317Z" stroke="white" stroke-width="8.5" stroke-linecap="round" stroke-linejoin="round"/>
<path d="M14.2861 59.6849C20.5861 65.9133 29.1167 63.4265 29.1167 63.4265C29.1167 63.4265 31.3473 54.7107 25.0472 48.482C18.7473 42.2532 10.2167 44.7403 10.2167 44.7403C10.2167 44.7403 7.9861 53.456 14.2861 59.6849Z" stroke="white" stroke-width="8.5" stroke-linecap="round" stroke-linejoin="round"/>
<path d="M26.9427 25.7125C25.5076 33.907 31.9568 39.3333 31.9568 39.3333C31.9568 39.3333 39.841 36.5653 41.2761 28.3708C42.7111 20.1763 36.262 14.75 36.262 14.75C36.262 14.75 28.3778 17.5181 26.9427 25.7125Z" stroke="white" stroke-width="8.5" stroke-linecap="round" stroke-linejoin="round"/>
<path d="M60.2102 71.3977C57.9943 71.3977 56.0294 71.0189 54.3153 70.2614C52.6108 69.4943 51.2661 68.4384 50.2812 67.0938C49.2964 65.7491 48.7945 64.2008 48.7756 62.4489H55.8494C55.8778 63.0833 56.0814 63.6468 56.4602 64.1392C56.839 64.6222 57.3551 65.0009 58.0085 65.2756C58.6619 65.5502 59.4053 65.6875 60.2386 65.6875C61.072 65.6875 61.8059 65.5407 62.4403 65.2472C63.0843 64.9441 63.5862 64.5322 63.946 64.0114C64.3059 63.4811 64.4811 62.875 64.4716 62.1932C64.4811 61.5114 64.2869 60.9053 63.8892 60.375C63.4915 59.8447 62.928 59.4328 62.1989 59.1392C61.4792 58.8456 60.6269 58.6989 59.642 58.6989H56.8153V53.6989H59.642C60.5038 53.6989 61.2614 53.5568 61.9148 53.2727C62.5777 52.9886 63.0938 52.5909 63.4631 52.0795C63.8324 51.5587 64.0123 50.9621 64.0028 50.2898C64.0123 49.6364 63.8561 49.0634 63.5341 48.571C63.2216 48.0691 62.7813 47.6809 62.2131 47.4062C61.6544 47.1316 61.0057 46.9943 60.267 46.9943C59.4905 46.9943 58.785 47.1316 58.1506 47.4062C57.5256 47.6809 57.0284 48.0691 56.6591 48.571C56.2898 49.0729 56.0956 49.6553 56.0767 50.3182H49.358C49.3769 48.5852 49.8598 47.0606 50.8068 45.7443C51.7538 44.4186 53.0417 43.3816 54.6705 42.6335C56.3087 41.8854 58.1742 41.5114 60.267 41.5114C62.3504 41.5114 64.1828 41.8759 65.7642 42.6051C67.3456 43.3343 68.5767 44.3286 69.4574 45.5881C70.3381 46.8381 70.7784 48.2538 70.7784 49.8352C70.7879 51.4735 70.2528 52.8229 69.1733 53.8835C68.1032 54.9441 66.7254 55.5975 65.0398 55.8438V56.071C67.2936 56.3362 68.9934 57.0653 70.1392 58.2585C71.2945 59.4517 71.8674 60.9432 71.858 62.733C71.858 64.4186 71.3608 65.9148 70.3665 67.2216C69.3816 68.5189 68.0085 69.5417 66.2472 70.2898C64.4953 71.0284 62.483 71.3977 60.2102 71.3977Z" fill="white"/>
</svg>
